<?xml version="1.0" encoding="utf-8"?>
<!-- Generator: Adobe Illustrator 27.0.1, SVG Export Plug-In . SVG Version: 6.00 Build 0)  -->
<svg version="1.1" id="Layer_1" xmlns="http://www.w3.org/2000/svg" xmlns:xlink="http://www.w3.org/1999/xlink" x="0px" y="0px"
	 viewBox="0 0 28 24" style="enable-background:new 0 0 28 24;" xml:space="preserve">
<style type="text/css">
	.st0{fill:#FFFFFF;}
</style>
<path class="st0" d="M9.8,18.2h13.7c0.5,0,0.9-0.4,0.9-0.9c0-0.5-0.4-0.9-0.9-0.9H10c-0.7,0-1.1-0.5-1.2-1.2L8.6,14h14.9
	c1.7,0,2.6-1.1,2.8-2.7l0.9-6.2c0-0.2,0-0.3,0-0.4c0-0.6-0.4-0.9-1.1-0.9H7.1L6.9,2.2C6.8,1.3,6.5,0.9,5.3,0.9H1.2
	c-0.5,0-0.9,0.4-0.9,0.9c0,0.5,0.4,0.9,0.9,0.9h4L7,15.5C7.2,17.2,8.1,18.2,9.8,18.2z M25.3,5.5l-0.8,5.6c-0.1,0.7-0.5,1.2-1.2,1.2
	l-15,0l-1-6.8H25.3z M10.7,23.9c1.1,0,1.9-0.8,1.9-1.9c0-1.1-0.8-1.9-1.9-1.9c-1.1,0-1.9,0.8-1.9,1.9C8.8,23.1,9.7,23.9,10.7,23.9z
	 M21.7,23.9c1.1,0,1.9-0.8,1.9-1.9c0-1.1-0.8-1.9-1.9-1.9c-1.1,0-1.9,0.8-1.9,1.9C19.8,23.1,20.6,23.9,21.7,23.9z"/>
</svg>
