<?xml version="1.0" encoding="utf-8"?>
<!-- Generator: Adobe Illustrator 24.1.2, SVG Export Plug-In . SVG Version: 6.00 Build 0)  -->
<svg version="1.1" id="Layer_1" xmlns="http://www.w3.org/2000/svg" xmlns:xlink="http://www.w3.org/1999/xlink" x="0px" y="0px"
	 viewBox="0 0 2560 1873" style="enable-background:new 0 0 2560 1873;" xml:space="preserve">
<style type="text/css">
	.st0{fill:#FCD482;}
	.st1{fill:#FEECCA;}
	.st2{fill:#6997C3;}
	.st3{fill:#FBD482;}
	.st4{fill:#FAD383;}
	.st5{fill:#F8D384;}
	.st6{fill:#F2D086;}
	.st7{fill:#EFCF88;}
	.st8{fill:#EBCD8A;}
	.st9{fill:#F2D087;}
	.st10{fill:#F6D284;}
	.st11{fill:#F7D284;}
	.st12{fill:#EDCE89;}
	.st13{fill:#F5D185;}
	.st14{fill:#DEC88F;}
	.st15{fill:#E2CA8D;}
	.st16{fill:#B7B8A2;}
	.st17{fill:#6A99C5;}
	.st18{fill:#6B99C5;}
	.st19{fill:#6C9AC4;}
	.st20{fill:#719CC2;}
	.st21{fill:#759EC0;}
	.st22{fill:#6E9AC3;}
</style>
<g>
	<g>
		<path class="st0" d="M0,1870.49C0,1247.04,0,623.6,0,0c853.07,0,1706.13,0,2559.9,0c0,623.4,0,1246.94,0,1870.49
			c-3.46,1.85-7.2,0.94-10.8,0.94c-846.11,0.05-1692.21,0.05-2538.32,0C7.19,1871.43,3.46,1872.34,0,1870.49z"/>
		<path class="st1" d="M0,1870.49c853.3,0,1706.6,0,2559.9,0c-0.44,0.61,1.01,2.08-1,2.02c-2.66-0.09-5.33-0.02-8-0.02
			c-847.3,0-1694.6,0-2541.9-0.12C6.07,1872.37,2.22,1874.67,0,1870.49z"/>
		<path class="st2" d="M1282,1844.21c-412.96,0-825.92,0.01-1238.88-0.02c-16.68,0-14.82,1.92-14.82-15.03
			c-0.03-595.53-0.03-1191.06,0-1786.59c0-16.62-2.06-15.08,14.82-15.08c825.58-0.02,1651.17-0.02,2476.75,0
			c16.01,0,14.34-1.5,14.34,14.56c0.02,595.86,0.02,1191.73,0,1787.59c0,16.23,1.59,14.56-14.35,14.56
			C2107.25,1844.21,1694.62,1844.21,1282,1844.21z"/>
		<path class="st0" d="M1283.52,806.27c11.63,14.21,23.16,28.38,34.8,42.45c2.56,3.1,1.82,5.81-0.96,7.66
			c-8.15,5.44-7.5,13.14-6.45,21.33c1.01,7.92,1.48,15.91,2.08,23.87c0.3,3.93,1.92,6.04,6.2,5.99c7.25-0.08,13.79,2.02,19.08,7.24
			c2.51,2.47,5.31,2.46,8.27,1.06c2.41-1.14,4.74-2.44,7.16-3.55c11.71-5.4,21.31-1.4,24.91,10.86c2.89,9.85,9.53,14.96,19.19,16.51
			c15.12,2.42,30.46,3.15,45.53,6.04c11.76,2.26,23.65,3.85,35.4,6.19c4.39,0.87,7.78,0.41,10.8-2.95c1.55-1.72,3.4-3.19,5.19-4.68
			c11.9-9.91,28.82-10.71,39.23,2.03c4.07,4.98,8.78,7.09,15.55,6.53c8.99-0.74,12.64,2.8,12.7,10.08
			c0.06,7.35-4.69,12.14-12.48,12.54c-1.33,0.07-2.67,0-4-0.02c-10.02-0.19-12.05,1.88-9.04,11.5c2.77,8.86,6.77,17.34,10.28,25.97
			c20.83,51.16,41.61,102.35,62.6,153.44c2.28,5.56,2.71,11.17,1.66,16.63c-6.17,32.13-20.71,59.09-50.38,75.34
			c-55.76,30.54-120.66,4.81-142.87-52.09c-0.48-1.24-0.87-2.51-1.38-3.74c-6.68-15.94-7.21-30.44,1.24-47.26
			c26-51.75,49.81-104.59,74.48-157.01c0.85-1.81,1.83-3.57,2.53-5.43c3.47-9.34-1.65-16.39-11.3-15.12
			c-17.51,2.29-35.13,3.03-52.72,4.3c-31.24,2.25-62.52,3.65-93.79,5.29c-2.66,0.14-5.33,0.2-7.99,0.39
			c-8.46,0.6-8.44,0.62-9.57,9.09c-5.65,42.53-11.37,85.05-16.95,127.59c-3.59,27.34-7.05,54.7-10.44,82.06
			c-0.56,4.52-2.24,8.26-5.5,11.4c-2.36,2.28-4.56,2.29-6.97,0.1c-3.65-3.32-5.41-7.57-6.02-12.3c-3.17-24.75-6.2-49.52-9.4-74.27
			c-3.88-29.98-7.93-59.94-11.8-89.92c-1.74-13.51-3.21-27.05-4.81-40.58c-0.23-1.98-0.59-3.94-0.79-5.92
			c-0.53-5.27-3.46-7.17-8.68-7.33c-13.98-0.42-27.96-1.16-41.93-1.98c-34.24-2.02-68.48-4.13-102.72-6.3
			c-3.63-0.23-7.21-1.25-10.85-1.64c-9.25-0.98-14.42,5.18-11.83,14.17c0.73,2.53,2.15,4.86,3.28,7.27
			c26.25,55.72,52.47,111.45,78.82,167.12c2.35,4.96,3.99,9.72,2.75,15.3c-5.16,23.17-14.31,44.19-31.62,61.15
			c-30,29.4-74.29,36.97-112.71,18.86c-31.8-14.99-48.4-41.24-55.68-74.68c-2.03-9.34-0.27-17.39,3.25-25.97
			c22.79-55.4,45.23-110.94,67.78-166.43c1.75-4.31,3.65-8.55,3.58-13.39c-0.06-4.12-1.72-6.22-6.04-5.91
			c-2.99,0.21-6.01,0.46-8.98,0.26c-6.87-0.47-11.8-5.84-11.73-12.43c0.07-6.33,4.44-10.43,12.05-10.22
			c6.2,0.17,11.03-0.57,15.79-5.71c12.42-13.42,27.8-13.95,41.41-1.39c6.02,5.56,11.16,7.13,19.42,5.46
			c22.49-4.54,45.13-8.58,68.1-10.19c2.98-0.21,5.95-0.77,8.88-1.35c9.23-1.83,15.47-6.86,18.45-16.13
			c4.21-13.08,13.08-16.64,25.54-10.72c1.8,0.86,3.54,1.86,5.32,2.77c3.6,1.85,6.93,1.91,10.04-1.17
			c5.03-4.98,11.32-6.96,18.22-6.72c5.37,0.18,7.02-2.55,6.99-7.31c-0.05-8.67,0.67-17.29,2.03-25.86
			c1.06-6.68-0.15-12.49-5.99-16.78c-4.4-3.23-4.17-6.37-0.54-10.67c10.74-12.7,20.95-25.84,31.42-38.77
			C1281.23,807.51,1282.23,807.14,1283.52,806.27z"/>
		<path class="st3" d="M1273.55,736.04c1.07-18.83-1.63-35.03-1.58-51.33c0.05-16.98-0.21-33.96-0.23-50.94
			c0-2.9-0.95-6.32,1.85-8.4c2.82-2.09,4.72-6.06,8.91-5.65c3.32,0.32,9.23,7.95,9.18,11.77c-0.22,18.97,0.59,37.94-0.72,56.91
			c-0.96,13.94-1.04,27.94-1.45,41.92c-0.04,1.23-0.23,2.69,2.42,3.9c33.43-29.86,38.81-65.38,21.2-106.08
			c17.83,17.88,23.17,39.79,20.98,63.76c-2.26,24.75-17.75,41.46-37.26,55.74c7.44,4.97,15.6,3.26,22.62,6.04
			c-7.49,3.37-12.19,4.81-21.26,3.01c-7.11-1.41-12.2-0.15-16.43,6.99c-4.62-7.6-10.59-8.37-18.07-6.91
			c-7.01,1.37-14.27,0.06-21.95-2.51c7.95-3.17,16.1-1.73,23.01-5.57c0.43-4.09-3.34-4.59-5.43-6.27
			c-15.86-12.74-27.62-28.21-30.3-48.83c-2.9-22.32,2.34-42.95,15.77-61.24c1.52-2.07,3.12-4.28,7.11-5.61
			c-11.87,24.29-16.36,48.51-5.87,73.59C1251.76,713.99,1260.42,725.42,1273.55,736.04z"/>
		<path class="st4" d="M1514.25,1695.08c-5.4,8.14-7.77,17.83-17.7,23.5c-19.61,11.2-40.52,17.14-62.75,20.31
			c-12.29,1.75-24.46,1.49-36.69,1.99c-8.04,0.33-15.83-0.75-23.61-2.69c-14.46-3.61-21.02-13.9-16.83-28.3
			c1.49-5.11,0.2-10.57,3.45-16.99c1.85,7.97,4.81,14.03,11.81,16.47c4.05,1.41,8.23,2.7,12.46,3.29
			c10.18,1.41,20.4,2.61,30.64,3.46c9.62,0.8,19.08-1.7,28.71-2.1c15.2-0.62,30.24-3.53,44.73-8.61c5.67-1.99,11.16-4.11,15.88-8.07
			c2.2-1.85,5.15-2.81,7.76-4.17C1512.82,1693.8,1513.54,1694.44,1514.25,1695.08z"/>
		<path class="st5" d="M925.98,1654.6c-0.83,6.99,2.48,11.71,8.7,14.04c8.18,3.07,9.79,9.36,9.09,16.84
			c-1.96,20.95-9,40.09-21.78,56.84c-9.78,12.83-23.16,19.13-39.27,20.44c-14.56,1.18-26.25-8.28-29.33-21.78
			c-3.57-15.63-2.88-31.38,5.5-47.28c1.71,4.82,1.31,8.17-0.03,11.62c-4.73,12.24,6.32,27.98,18.39,30.61
			c19.56,4.25,39.7-2.71,51.72-18.88c3.29-4.42,8.32-7.71,7.41-14.51c-0.54-4.03-1.22-6.96-5.83-7.91c-2.88-0.6-5.76-1.82-8.28-3.35
			c-3.46-2.1-6.76-4.89-6.25-9.47c1.1-9.83,2.89-19.5,10.07-27.11L925.98,1654.6z"/>
		<path class="st6" d="M950.05,1756.66c12.96-10.82,20.95-25.54,30.34-39.09c8.54-12.32,17.33-24.27,28.46-34.44
			c11.97-10.92,25.5-17.93,42.05-16.97c8.6,0.5,15.57-1.34,20.92-8.54c2.76-3.71,6.17-7.01,11.43-7.24
			c1.22-0.05,2.93-0.71,3.51-1.65c4.16-6.79,13.05-7.7,17.39-14.16c1.51-2.25,4.1-1.88,6.16-2.79c7.19-3.19,11.33-8.29,12.27-16.6
			c1.05-9.29,1.19-18.33,0.28-27.68c-1.18-12.09,3.85-23.24,8.5-35.65c3.6,12.37,2.34,23.74,1.59,34.84
			c-0.67,9.85-2.89,19.68-5.26,29.32c-2.01,8.19-6.81,15.22-13.28,20.59c-7.34,6.09-15.04,11.82-23.01,17.05
			c-13.01,8.53-25.87,17.24-36.04,29.14c-5.48,6.41-11.95,8.69-20.17,8.49c-19.73-0.48-32.81,9.69-44.23,25.28
			c-11.27,15.39-21.21,32.28-37.12,43.89c-1.05,0.92-2.26,1.34-3.44,0.42C948.88,1759.65,948.91,1758.17,950.05,1756.66z"/>
		<path class="st7" d="M1138.44,1537.29c5.59-12.5,15.78-21.18,26.04-29.31c9.6-7.61,18.53-16.17,28.77-22.87
			c13.38-8.76,23.09-21.86,36.83-30.14c2.74-1.65,4.82-4.54,6.91-7.11c1.31-1.62,1.79-4.38-0.06-5.41c-6.6-3.7-1.75-6.04,0.74-8.65
			c2.52-2.65,5.16-5.2,7.78-7.75c2.73-2.65,4.94-6.78,8.91-0.66c1.84,2.84,5.4,0.05,7.76-1.16c1.72,1.57,0.88,2.9,0.18,3.88
			c-13.19,18.39-27.49,35.69-46.56,48.47c-3,2.02-5.45,4.86-8.15,7.33c-10.48,9.6-21.66,18.27-33.32,26.44
			c-6.2,4.35-12.2,9.19-18,14.07C1150.66,1529.14,1144.64,1533.16,1138.44,1537.29z"/>
		<path class="st4" d="M1334.32,735.94c23.63-41.09,17.54-77.78-14.38-111.49c22.06,4.66,39.47,24.81,43.36,49.11
			C1367.01,696.76,1354.56,724.42,1334.32,735.94z"/>
		<path class="st4" d="M1243.74,623.96c-31.77,33.36-39.1,69.44-16.14,109.73c-13.81-3.17-27.56-27.84-27.92-49.4
			C1199.2,655.18,1215.95,631.57,1243.74,623.96z"/>
		<path class="st8" d="M1673.07,1738.22c-0.06-4.56,2.36-6,4.68-7.05c9.4-4.24,15.74-11.9,22.01-19.55
			c4.33-5.28,2.89-8.22-3.83-8.95c-10.94-1.19-13.04-4.74-8.43-14.83c3-6.57,5.16-13.62,11.04-18.6c3.48-2.95,6.1-2.81,9.49,0.17
			c6.36,5.61,7.2,12.68,5.09,19.98c-3.01,10.44-6.4,20.72-11.14,30.67C1695.93,1732.76,1684.6,1734.5,1673.07,1738.22z"/>
		<path class="st9" d="M1231.41,1736.9c9.27-4.72,14.93-11.17,20.71-17.41c5.7-6.15,5.48-11.17-0.13-17.42
			c-0.22-0.25-0.47-0.47-0.69-0.71c-12.54-13.44-12.54-13.44-4.66-29.21c2.56-5.12,5.43-5.9,10.27-2.57
			c6.08,4.19,9.52,10.46,10.56,17.33c3.04,20.08-9.8,43.06-27.6,50.63C1237.63,1738.48,1235.52,1738.96,1231.41,1736.9z"/>
		<path class="st7" d="M1148.06,1738.68c1.84-5.93,7.48-8.21,11.67-11.79c3.05-2.6,6.09-5,8.26-8.49
			c4.55-7.29,4.45-11.27-1.12-17.65c-1.53-1.75-3.28-3.3-4.93-4.95c-7.33-7.29-7.34-7.3-3.08-16.14c0.86-1.79,1.88-3.52,2.77-5.3
			c3.96-7.92,6.34-8.68,12.11-2.36c5.81,6.36,10.49,13.11,9.02,23.08c-1.59,10.77-4.39,21-10.66,29.61
			c-5.72,7.84-13.8,13.26-24.15,13.87L1148.06,1738.68z"/>
		<path class="st10" d="M1417.79,1664.69c-5.9-0.2-9.92-6.17-7.6-11.81c1.76-4.26,4.14-8.25,6.27-12.35
			c1.65-3.17,3.98-3.06,6.54-1.2c1.07,0.77,1.93,1.84,3.02,2.58c4.76,3.26,7.7,2.95,10.88-1.62c1.98-2.84,2.47-7.5,7.73-4.88
			c5.49,2.74,8.73,8.98,6.99,13.8c-0.89,2.47-2.13,4.87-3.52,7.1c-3.73,6-5.62,6.24-11.51,1.81c-5.85-4.4-6.97-4.31-11.72,2.06
			C1423,1662.68,1421.3,1664.95,1417.79,1664.69z"/>
		<path class="st11" d="M1052.57,1565.95c-0.45,4.74-2.23,8.94-5.52,12.46c-2.32,2.49-4.96,3.24-7.97,1.12
			c-0.82-0.57-1.61-1.18-2.47-1.69c-6.29-3.71-7.1-3.7-11,2.25c-2.48,3.79-4.68,6.27-9.54,3.27c-6.56-4.05-7.29-5.44-4.51-11.7
			c0.67-1.52,1.33-3.05,2.08-4.53c4.58-8.98,4.63-9.05,13.87-3.98c4.58,2.51,7.7,0.34,10.27-3.03c2.18-2.85,3.54-6.99,8.3-4.83
			C1050.47,1557.31,1051.78,1561.5,1052.57,1565.95z"/>
		<path class="st12" d="M1591.82,1727.01c-2.32-2.73-1.79-5.19-1.47-7.31c2.35-15.51,0.42-31.14,1.52-46.67
			c0.66-9.33,4.4-17.85,7.41-26.67C1606.44,1658.18,1601.64,1711.72,1591.82,1727.01z"/>
		<path class="st13" d="M1202.29,1700.22c0.48-18.44,0.44-36.91,1.7-55.29c0.53-7.74,2.34-15.79,7.86-23.08
			c3.72,6.36,1.34,12.88,1.63,19.02c0.34,6.97-0.25,13.99-0.02,20.97c0.22,6.79-1.91,13.1-3.02,19.62
			c-1.14,6.68-4.95,12.24-5.74,18.88C1203.89,1700.32,1203.09,1700.27,1202.29,1700.22z"/>
		<path class="st14" d="M1615.04,1741.47c1.11-5.03,3.93-8.23,7.35-9.71c19.16-8.3,28.43-25.03,36.67-42.5
			c2.14-4.55,1.87-10.23,6.41-13.55c1.41,0.45,1.99,1.45,1.66,2.34c-4.96,13.29-8.72,26.98-14.57,39.99
			c-4.59,10.21-11.96,16.47-22.18,19.73C1625.49,1739.32,1619.98,1738.45,1615.04,1741.47z"/>
		<path class="st15" d="M1572.22,1675.09c-2.26,14.82-7.39,26.81-12.44,38.85c-2.3,5.48-4.24,10.97-8.98,15.12
			c-3.28,2.87-6.66,5.15-10.62,7.03c-6.59,3.12-14.01,2.17-21.97,6.86c2.59-6.65,6.51-9.2,10.28-11.32
			c3.19-1.79,5.97-4.15,9.04-5.89c15.33-8.71,20.91-24.11,27.41-38.87C1566.53,1683.27,1567.35,1679.36,1572.22,1675.09z"/>
		<path class="st12" d="M926.11,1654.7c0.09-1.32-0.27-2.92,0.35-3.91c12.01-19.06,27.14-34.79,48.67-45.21
			c1.08,9.49-3.48,16.17-7.87,22.81c-1.13,1.71-3.53,1.86-5.52,1.7c-8.13-0.66-13.66,3.94-19.09,8.98
			c-5.56,5.16-9.96,11.59-16.66,15.52C925.98,1654.6,926.11,1654.7,926.11,1654.7z"/>
		<path class="st7" d="M1681.24,1612.61c-2.56,4.5-5.29,9.34-8.05,14.16c-0.57,1-1.55,1.01-2.56,0.89
			c-6.59-0.76-11.84-9.12-9.53-15.3c1.15-3.08,2.3-6.17,3.76-9.11c2.57-5.16,4.65-5.56,8.99-1.25
			C1676.77,1604.92,1680.83,1607.22,1681.24,1612.61z"/>
		<path class="st6" d="M1260.35,605.12c4.38,1.23,5.86,5.28,9.67,6.2c4.81,1.16,8-3.71,12.02-3.15c3.67,0.51,6.65,4.11,11.1,3.14
			c3.68-0.8,5.48-4.68,9.2-5.6c0.73,10.02-6.26,15.99-15.22,12.72c-3.98-1.45-6.9-1.73-11.01-0.16
			C1267.14,621.7,1260.66,616.26,1260.35,605.12z"/>
		<path class="st16" d="M950.05,1756.66c0.21,2.31,1.54,3.51,3.8,3.78c-9.16,10.42-21.31,16.07-34.68,21.72
			c0.03-6.71,5.6-6.82,8.84-9.09c3.77-2.65,6.28-7.05,10.78-8.56C943.41,1762.96,945.67,1758.35,950.05,1756.66z"/>
		<path class="st7" d="M1147.95,1738.55c-0.35,0.56-0.62,1.2-1.06,1.67c-0.7,0.76-1.57,1.28-2.64,0.78
			c-0.24-0.11-0.53-0.56-0.48-0.8c0.25-1.26,1.36-1.23,2.3-1.38c0.65-0.1,1.32-0.1,1.99-0.14
			C1148.06,1738.68,1147.95,1738.55,1147.95,1738.55z"/>
		<path class="st8" d="M1665.75,1741c-0.24-0.09-0.6-0.11-0.7-0.29c-0.37-0.63-0.14-1.1,0.6-1.22c0.23-0.04,0.63,0.09,0.73,0.27
			C1666.72,1740.36,1666.47,1740.8,1665.75,1741z"/>
		<path class="st17" d="M1431.91,1189.5c2.41-1.64,5.15-1.04,7.75-1.06c46.93-0.35,93.86-0.68,140.8-0.96
			c12.88-0.08,13.03,0.05,8.3,11.69c-9.9,24.34-25.87,42.65-52.12,49.68c-28.75,7.7-54.65,1.12-77.34-17.71
			c-11.14-9.24-19.5-20.86-25.43-34.13c-0.81-1.81-1.52-3.68-2.14-5.57C1431.54,1190.88,1431.83,1190.16,1431.91,1189.5z"/>
		<path class="st17" d="M1134.55,1189.78c-2.11,9.5-7.34,17.56-12.89,25.25c-17.06,23.64-40.67,36.37-69.53,37
			c-26.53,0.58-48.26-10.71-63.92-32.58c-5.25-7.33-9.31-15.34-12.45-23.79c-2.55-6.84-1.73-8.14,5.74-8.16
			c22.61-0.06,45.25-0.48,67.84,0.28c24.61,0.82,49.21,0.26,73.81,0.66C1126.73,1188.51,1130.46,1187.65,1134.55,1189.78z"/>
		<path class="st17" d="M1432.8,1163.95c2.54-8.83,67.49-149.7,73.2-158.97c2.72,1.56,1.48,4.16,1.43,6.22
			c-1.03,47.92-2.17,95.83-3.26,143.75c-0.09,4.14,0.11,8.02-5.93,8.13c-20.97,0.41-41.94,1.1-62.91,1.65
			C1434.7,1164.74,1434.06,1164.35,1432.8,1163.95z"/>
		<path class="st17" d="M1133.16,1164.46c-7.07,0-13.4,0.46-19.64-0.09c-13.94-1.23-27.91-1.01-41.86-1.29
			c-9.56-0.19-9.72-0.18-9.75-9.2c-0.13-38.88-2.75-77.71-2.31-116.6c0.12-10.95,0.02-21.91-1.48-33.3
			C1063.4,1009.21,1129.89,1151.51,1133.16,1164.46z"/>
		<path class="st17" d="M1595.91,1164.21c-17.83,0-34.07,0.04-50.31-0.03c-3.98-0.02-7.96-0.4-11.94-0.67
			c-7.23-0.49-7.62-0.59-7.63-7.37c-0.09-50.16-0.05-100.33-0.05-150.81c1.35,1.21-0.13,0.1,1.2,0.02c0.27-0.02,0.72,0.08,0.81,0.26
			c1.23,2.34,2.55,4.64,3.58,7.07C1552.85,1062.73,1574.1,1112.81,1595.91,1164.21z"/>
		<path class="st17" d="M969.8,1165.02c23.34-54.99,45.87-108.08,68.4-161.18c0.51,0.04,1.03,0.08,1.54,0.12
			c0.14,2.4,0.41,4.8,0.42,7.2c0.02,46.91,0.01,93.82,0,140.73c0,2-0.08,3.99-0.03,5.99c0.1,3.74-1.78,5.31-5.42,5.54
			C1013.8,1164.69,992.89,1164.74,969.8,1165.02z"/>
		<path class="st18" d="M1266.03,886.83c-0.51-4.84,1.57-11.31,2.81-17.73c1.04-5.38-0.18-8.61-3.91-12.14
			c-5.67-5.37-5.51-5.64-0.17-11.68c4.84-5.47,9.89-10.75,14.67-16.26c2.53-2.91,4.66-3.1,7.26-0.14
			c5.7,6.47,11.47,12.88,17.32,19.22c2.37,2.57,2.03,4.9-0.5,6.74c-6.84,5-8.04,11.12-5.59,19.12c1.72,5.62,1.88,11.76,2.31,17.7
			c0.23,3.14,1.18,6.97-2.39,9.03c-3.38,1.95-6.78,0.41-9.12-1.89c-4.02-3.95-7.12-2.56-11.24-0.03
			c-8.89,5.47-11.51,3.67-11.45-7.06C1266.03,890.71,1266.03,889.72,1266.03,886.83z"/>
		<path class="st19" d="M1465.28,964.08c-2.79,0.64-3.73,1.03-4.69,1.06c-24.62,0.77-49.24,1.47-73.86,2.26
			c-18.96,0.61-37.91,1.45-56.88,1.94c-9.41,0.24-9.42-0.01-9.57-9.28c-0.26-15.21-0.29-14.96,15.14-12.92
			c30.65,4.07,61.34,7.8,92.01,11.74C1439.47,960.44,1451.47,962.18,1465.28,964.08z"/>
		<path class="st18" d="M1304.77,963.33c3.38,9.02-2.07,15.17-10.17,20.9c-12.35,8.75-12.1,9.09-23.94-0.83
			c-2.04-1.71-4.09-3.43-6.29-4.93c-3.08-2.1-4.51-4.85-3.78-8.53c1.3-6.58,1.27-13.25,1.35-19.9c0.05-3.79,1.22-5.86,5.26-7.08
			c9.76-2.97,19.29-3.93,29.22-0.77c5.03,1.6,8.26,3.78,7.88,9.62C1304.1,955.12,1304.55,958.46,1304.77,963.33z"/>
		<path class="st19" d="M1102.48,963.81c12.34-1.66,24.67-3.33,37.01-4.99c26.36-3.53,52.73-7.05,79.1-10.56
			c6.58-0.88,13.15-1.9,19.75-2.5c6.13-0.56,7.25,0.32,7.27,6.32c0.07,20.95,1.76,17.58-16.51,17.12
			c-35.92-0.9-71.83-2.55-107.74-3.81c-6.27-0.22-12.55-0.03-18.83-0.03C1102.52,964.85,1102.5,964.33,1102.48,963.81z"/>
		<path class="st20" d="M1352.95,935.33c-15.47-1.89-31.04-3.23-46.2-6.93c-15.79-3.85-31.42-4.08-47.19-0.11
			c-14.51,3.65-29.45,4.79-44.23,6.82c-3.93,0.54-7.97,0.62-11.74-1.23c-1.93-0.95-3.42-2.15-2.84-4.56c0.6-2.5,2.2-4.42,4.81-4.16
			c2.93,0.3,5.77,1.4,8.66,2.13c8.84,2.21,17.64,3.94,25.52-2.75c1.33-1.13,2.93-1.74,4.61-1.5c11.63,1.65,21.42-3.71,31.21-8.49
			c5.29-2.58,9.58-2.63,14.9,0.02c9.75,4.87,19.6,10.08,31.23,8.5c1.2-0.16,2.85,0.21,3.75,0.97c9.2,7.85,19.23,5.19,29.29,2.53
			c1.6-0.42,3.12-1.2,4.74-1.44c2.71-0.39,4.41,1.12,5.23,3.59c0.93,2.8-0.61,4.31-2.95,5.45
			C1358.93,935.53,1355.93,935.26,1352.95,935.33z"/>
		<path class="st21" d="M1262.31,996.26c9.09,4.79,14.69,10.34,14.19,21.58c-1.24,27.87-1.04,55.81-1.46,83.72
			c-0.01,0.57-0.53,1.13-1.83,3.76C1268.1,1067.91,1265.01,1032.23,1262.31,996.26z"/>
		<path class="st22" d="M1304.83,996.72c-3.8,35.23-7.59,70.45-11.43,106c-1.94-1.54-1.53-3.24-1.57-4.75
			c-0.7-26.62-0.8-53.28-2.31-79.86C1288.89,1006.86,1294.24,1001.08,1304.83,996.72z"/>
	</g>
</g>
</svg>
