<?xml version="1.0" encoding="utf-8"?>
<!-- Generator: Adobe Illustrator 27.0.1, SVG Export Plug-In . SVG Version: 6.00 Build 0)  -->
<svg version="1.1" id="Layer_2_00000090263790642788383060000012350338466713959850_"
	 xmlns="http://www.w3.org/2000/svg" xmlns:xlink="http://www.w3.org/1999/xlink" x="0px" y="0px" viewBox="0 0 198.2 228.5"
	 style="enable-background:new 0 0 198.2 228.5;" xml:space="preserve">
<style type="text/css">
	.st0{fill:url(#SVGID_1_);}
	.st1{fill:url(#SVGID_00000100363661337776662920000006706592904663560368_);}
	.st2{fill:url(#SVGID_00000091004870408304724710000015813158737513963927_);}
	.st3{fill:url(#SVGID_00000092421189967586081880000017329508952567567030_);}
	.st4{fill:url(#SVGID_00000035506767961413464740000000241819555313022870_);}
	.st5{fill:url(#SVGID_00000051367117825999323050000014430233634833045154_);}
	.st6{fill:url(#SVGID_00000073002175302272376790000006006558618675020441_);}
	.st7{fill:url(#SVGID_00000104664180404853980760000016079547414598747809_);}
	.st8{fill:url(#SVGID_00000051373748678946063350000003597582504308675226_);}
	.st9{fill:url(#SVGID_00000104668975034229138690000011062404787287917734_);}
	.st10{fill:url(#SVGID_00000116219630138748474300000015418042446896384696_);}
	.st11{fill:url(#SVGID_00000037685445437752020550000011289719047468815769_);}
	.st12{fill:url(#SVGID_00000078725487916742323410000008350088491097363102_);}
	.st13{fill:url(#SVGID_00000076604946927151022180000015491240512603658400_);}
	.st14{fill:url(#SVGID_00000014597003992037560010000011760100627455841960_);}
	.st15{fill:url(#SVGID_00000141420676686870310240000007915302136962184583_);}
	.st16{fill:url(#SVGID_00000053529679480886616710000015818784047282531474_);}
	.st17{fill:url(#SVGID_00000041265571551858850910000002213440312316929924_);}
	.st18{fill:url(#SVGID_00000029738119299714595030000005699921545924181634_);}
	.st19{fill:url(#SVGID_00000035491388099983988300000009038740773544874429_);}
	.st20{fill:url(#SVGID_00000096757236429975763260000003693736994403727013_);}
	.st21{fill:url(#SVGID_00000069377418392423800350000018264538415711158445_);}
	.st22{fill:url(#SVGID_00000178176841241604981830000003536180954395613357_);}
	.st23{fill:url(#SVGID_00000147939925140762780080000015143320162825699733_);}
	.st24{fill:url(#SVGID_00000068640686556671408300000003490446444453081235_);}
	.st25{fill:url(#SVGID_00000168093998283753857880000000339720383880446342_);}
	.st26{fill:url(#SVGID_00000163070548605245943650000009703532243465246340_);}
	.st27{fill:url(#SVGID_00000101084558464490534760000007963598836447278741_);}
	.st28{fill:url(#SVGID_00000077311261095505227350000007809911649511409057_);}
	.st29{fill:url(#SVGID_00000074410766431216887480000012725125875269951362_);}
	.st30{fill:url(#SVGID_00000141427472791982345550000007282270550632545169_);}
	.st31{fill:url(#SVGID_00000119823897440258513190000003610238517105603476_);}
	.st32{fill:url(#SVGID_00000104696911289863999660000007453720520950207393_);}
	.st33{fill:url(#SVGID_00000160184484094158074990000017026055591391559559_);}
	.st34{fill:url(#SVGID_00000021824408564220748920000016938418460895415452_);}
	.st35{fill:url(#SVGID_00000162345862190169757080000013728994341373500829_);}
	.st36{fill:url(#SVGID_00000054961734970416442540000014626112835937664654_);}
	.st37{fill:url(#SVGID_00000142151174290804602440000008289540102512258720_);}
	.st38{fill:url(#SVGID_00000053538207701336845460000011112574328889445546_);}
</style>
<g id="Layer_1-2">
	<g>
		
			<linearGradient id="SVGID_1_" gradientUnits="userSpaceOnUse" x1="99.9692" y1="191.8138" x2="107.2099" y2="191.8138" gradientTransform="matrix(1 0 0 -1 0 264)">
			<stop  offset="0" style="stop-color:#FF0000"/>
			<stop  offset="0.7877" style="stop-color:#006837"/>
		</linearGradient>
		<path class="st0" d="M99.5,7.5c0.7,17.7,1.3,35.4,2.1,53.1c0.2,4.3,0.5,8.7,1.1,13c0.6,4.2,1.4,8.3,2.1,12.4
			c1.3,8,2,16.1,1.6,24.2c-0.4,9-2.2,18-5.7,26.4c-0.3,0.7,0.8,1.4,1.1,0.6c6.3-14.7,7-31,5-46.7c-0.5-4.1-1.3-8.2-2-12.3
			c-0.8-4.5-1.3-8.9-1.6-13.5c-0.6-8.9-0.8-17.9-1.2-26.8c-0.4-10.1-0.8-20.3-1.2-30.4C100.7,6.7,99.4,6.7,99.5,7.5L99.5,7.5
			L99.5,7.5z"/>
		
			<linearGradient id="SVGID_00000150081323245975509430000011350631256728964252_" gradientUnits="userSpaceOnUse" x1="43.6545" y1="62.873" x2="81.3799" y2="62.873" gradientTransform="matrix(1 0 0 -1 0 264)">
			<stop  offset="0" style="stop-color:#FF0000"/>
			<stop  offset="0.7877" style="stop-color:#006837"/>
		</linearGradient>
		<path style="fill:url(#SVGID_00000150081323245975509430000011350631256728964252_);" d="M43.2,194.7c2.1,6,7,10.8,13.1,12.7
			c3.8,1.2,7.8,1,11.7,0.6c4.5-0.5,9-1.1,13.4-1.7c0.8-0.1,0.8-1.4,0-1.2c-4.1,0.5-8.2,1.1-12.2,1.6c-3.8,0.5-7.7,0.8-11.5-0.1
			c-6.1-1.5-11.2-6.2-13.3-12.1C44.1,193.6,42.9,193.9,43.2,194.7L43.2,194.7L43.2,194.7z"/>
		
			<linearGradient id="SVGID_00000024723656812001152070000011108671140823978639_" gradientUnits="userSpaceOnUse" x1="94.803" y1="132.1747" x2="101.8418" y2="132.1747" gradientTransform="matrix(1 0 0 -1 0 264)">
			<stop  offset="0" style="stop-color:#FF0000"/>
			<stop  offset="0.7877" style="stop-color:#006837"/>
		</linearGradient>
		<path style="fill:url(#SVGID_00000024723656812001152070000011108671140823978639_);" d="M95.6,136.8c-0.2-1.1,0.3-2.2,0.7-3.2
			c0.4-1,0.8-1.9,1.4-2.8c1.2-1.5,2.8-2.6,4.4-3.6c0.7-0.4,0-1.5-0.6-1.1c-1.8,1.2-3.7,2.4-4.9,4.2c-0.7,0.9-1.1,2-1.5,3.1
			c-0.5,1.2-0.8,2.4-0.6,3.7c0,0.3,0.5,0.5,0.8,0.4C95.5,137.5,95.6,137.2,95.6,136.8L95.6,136.8L95.6,136.8z"/>
		
			<linearGradient id="SVGID_00000106834398573646494190000017025752639275382682_" gradientUnits="userSpaceOnUse" x1="58.4166" y1="217.101" x2="89.2282" y2="217.101" gradientTransform="matrix(1 0 0 -1 0 264)">
			<stop  offset="0" style="stop-color:#FF0000"/>
			<stop  offset="0.7877" style="stop-color:#006837"/>
		</linearGradient>
		<path style="fill:url(#SVGID_00000106834398573646494190000017025752639275382682_);" d="M58.2,22c3.3,2.1,6,5.1,7.6,8.7
			c1.9,4.1,1.9,8.3,1.7,12.7c-0.1,4.1,0.5,7.9,2.5,11.5c1.9,3.4,4.7,5.8,8,7.7c2.2,1.3,4.3,2.5,6.1,4.3c1.8,1.7,3.2,3.6,4.4,5.7
			c0.4,0.7,1.5,0.1,1.1-0.6c-2-3.5-4.8-6.5-8.2-8.7c-1.9-1.3-4.1-2.3-5.9-3.7c-1.6-1.2-2.9-2.7-4-4.4c-2.5-4-3-8.3-2.8-12.9
			c0.1-4.1-0.1-8-1.8-11.7c-1.7-3.9-4.6-7.2-8.2-9.5C58.1,20.5,57.5,21.6,58.2,22C58.2,22,58.2,22,58.2,22z"/>
		
			<linearGradient id="SVGID_00000024686502034192760720000002449151432991321474_" gradientUnits="userSpaceOnUse" x1="19.005" y1="222.9801" x2="63.886" y2="222.9801" gradientTransform="matrix(1 0 0 -1 0 264)">
			<stop  offset="0" style="stop-color:#FF0000"/>
			<stop  offset="0.7877" style="stop-color:#006837"/>
		</linearGradient>
		<path style="fill:url(#SVGID_00000024686502034192760720000002449151432991321474_);" d="M63.5,1.4c-2.7,1.9-6.1,2.4-8.9,4.4
			c-2.6,1.9-4.8,4.4-7.7,5.8c-1.4,0.7-3,1.2-4.3,2c-1.5,1-2.6,2.4-4,3.5c-1.3,1.1-2.7,2-4,3c-1.4,1.1-2.7,2.5-3.9,3.9
			c-2.1,2.6-3.6,5.5-5.3,8.3c-0.8,1.4-1.6,2.7-2.8,3.7c-1.2,1.1-2.4,1.8-2.9,3.4c-0.5,1.4-0.6,2.9-0.8,4.4c-0.3,2.1-0.4,4.1-0.4,6.2
			c0,3.5,0.2,7.2,1.5,10.5c1.4,3.3,3.6,6,5.6,8.8c2,2.8,5.2,7,3.3,10.6c-0.4,0.7,0.7,1.3,1.1,0.6c2.9-5.6-3.4-11.8-6.3-16.1
			c-1.9-2.8-3.3-5.8-3.7-9.3c-0.4-3.8-0.3-7.6,0.2-11.4c0.2-1.6,0.3-3.6,1.2-4.9c1-1.4,2.6-2.2,3.6-3.6c1.9-2.5,3.2-5.5,4.9-8.2
			c2.1-3.1,4.6-5.5,7.6-7.7c1.3-0.9,2.4-1.9,3.5-3c1.5-1.5,3.1-2.4,5-3.2c3.2-1.4,5.5-3.6,8.2-5.7c1.5-1.2,3.1-2.1,5-2.8
			c1.7-0.7,3.4-1.2,4.9-2.3C64.8,2,64.2,0.9,63.5,1.4C63.5,1.4,63.5,1.4,63.5,1.4z"/>
		
			<linearGradient id="SVGID_00000071557854440265166570000013544071682986074522_" gradientUnits="userSpaceOnUse" x1="58.5617" y1="232.4639" x2="86.8471" y2="232.4639" gradientTransform="matrix(1 0 0 -1 0 264)">
			<stop  offset="0" style="stop-color:#FF0000"/>
			<stop  offset="0.7877" style="stop-color:#006837"/>
		</linearGradient>
		<path style="fill:url(#SVGID_00000071557854440265166570000013544071682986074522_);" d="M58.6,16.8c2.2,0.1,4.5-0.2,6.7,0.3
			c1.9,0.5,3.5,1.7,4.7,3.1c2.8,3.3,3.6,7.8,4.4,11.9c1.3,6.3,4.2,16,12.4,15.4c0.8-0.1,0.8-1.3,0-1.2c-4.1,0.3-7.3-2.9-8.9-6.4
			c-1.9-3.9-2.2-8.4-3.3-12.6c-0.9-3.5-2.4-7.1-5.2-9.5c-1.3-1.1-2.8-1.8-4.4-2.1c-2.1-0.4-4.2-0.1-6.4-0.2
			C57.8,15.5,57.8,16.8,58.6,16.8L58.6,16.8L58.6,16.8z"/>
		
			<linearGradient id="SVGID_00000038402648284580038940000011996347794926446980_" gradientUnits="userSpaceOnUse" x1="64.2678" y1="213.8219" x2="137.6168" y2="213.8219" gradientTransform="matrix(1 0 0 -1 0 264)">
			<stop  offset="0" style="stop-color:#FF0000"/>
			<stop  offset="0.7877" style="stop-color:#006837"/>
		</linearGradient>
		<path style="fill:url(#SVGID_00000038402648284580038940000011996347794926446980_);" d="M64.9,10.5c1.9-3.5,5.2-6.1,9.1-7.1
			c4.7-1.1,10,0,14.7,1c8.7,1.9,18,4.9,24.2,11.7c2.8,3.1,5.1,6.7,7.3,10.3c2.5,4,4.9,8.1,7,12.3c4,8.3,6.7,17.2,8.1,26.3
			c1.7,10.9,1.6,22,1.5,33c0,0.8,1.2,0.8,1.2,0c0.1-10.3,0.1-20.7-1.2-31c-1.2-9.4-3.8-18.6-7.8-27.3c-2.1-4.6-4.6-8.9-7.2-13.1
			c-2.3-3.8-4.7-7.6-7.6-10.9C108,8.6,98.7,5.4,89.7,3.4c-5.1-1.1-10.9-2.4-16-1.2c-4.2,1-7.8,3.9-9.9,7.6
			C63.5,10.6,64.5,11.2,64.9,10.5L64.9,10.5L64.9,10.5z"/>
		
			<linearGradient id="SVGID_00000063599962455408381640000009657382004615226537_" gradientUnits="userSpaceOnUse" x1="138.3274" y1="121.6838" x2="197.7009" y2="121.6838" gradientTransform="matrix(1 0 0 -1 0 264)">
			<stop  offset="0" style="stop-color:#FF0000"/>
			<stop  offset="0.7877" style="stop-color:#006837"/>
		</linearGradient>
		<path style="fill:url(#SVGID_00000063599962455408381640000009657382004615226537_);" d="M137.8,91.6c1.5,4.6,3,9.2,4.6,13.8
			l2.3,7c0.7,2,1.9,4.4,1.8,6.6c-0.2,3.3-3.9,7.3-0.7,10.3c1.3,1.2,3.2,1.7,4.8,2.1c1.9,0.5,3.8,0.7,5.8,1c4.3,0.5,8.7,0.9,12.6,2.7
			c4,1.9,7.1,5.4,10.3,8.4c3.3,3.2,7.2,6.3,9.6,10.3c2.1,3.5,3.1,7.6,3.7,11.6c1.3,9.4,0.2,19.3,4.5,28.1c0.3,0.7,1.4,0.1,1.1-0.6
			c-3.9-8-3.1-17.2-4.1-25.8c-0.4-3.8-1.2-7.5-2.7-11c-1.7-4-4.5-6.9-7.5-9.8c-3.3-3.2-6.5-6.6-10.1-9.5c-3.1-2.5-6.6-3.9-10.6-4.6
			c-4.1-0.7-8.2-0.9-12.2-1.9c-1.9-0.5-4.6-1-5.1-3.2c-0.5-2.1,0.9-4.2,1.5-6.1c0.7-2.2,0.1-4.1-0.6-6.2l-2.6-7.7
			c-1.7-5.2-3.5-10.4-5.2-15.6C138.8,90.5,137.6,90.8,137.8,91.6L137.8,91.6L137.8,91.6z"/>
		
			<linearGradient id="SVGID_00000141436403539939403400000002083545346455866783_" gradientUnits="userSpaceOnUse" x1="155.7633" y1="105.9388" x2="187.5693" y2="105.9388" gradientTransform="matrix(1 0 0 -1 0 264)">
			<stop  offset="0" style="stop-color:#FF0000"/>
			<stop  offset="0.7877" style="stop-color:#006837"/>
		</linearGradient>
		<path style="fill:url(#SVGID_00000141436403539939403400000002083545346455866783_);" d="M187.6,150.1c-3.3,0.3-6.6-0.7-10-0.5
			c-3.1,0.2-6,1.6-8.6,3.2c-5.3,3.4-9.5,8.1-13.6,12.7c-0.5,0.6,0.4,1.5,0.9,0.9c3.9-4.5,7.9-9,12.9-12.3c2.6-1.7,5.6-3.2,8.8-3.3
			c3.2-0.1,6.3,0.8,9.5,0.5C188.3,151.2,188.4,150,187.6,150.1L187.6,150.1L187.6,150.1z"/>
		
			<linearGradient id="SVGID_00000180331865885602891380000018362290441886558874_" gradientUnits="userSpaceOnUse" x1="127.6118" y1="101.4992" x2="182.8488" y2="101.4992" gradientTransform="matrix(1 0 0 -1 0 264)">
			<stop  offset="0" style="stop-color:#FF0000"/>
			<stop  offset="0.7877" style="stop-color:#006837"/>
		</linearGradient>
		<path style="fill:url(#SVGID_00000180331865885602891380000018362290441886558874_);" d="M128,182.3c3.7-2.5,7.3-5,10.4-8.2
			c3.2-3.4,6.3-6.8,9.5-10.1c3.3-3.3,6.6-6.5,10.1-9.6c3.3-3,6.7-6.3,10.5-8.7c2.2-1.3,4.6-2.3,7.2-1.8c2.4,0.4,4.6,1.8,6.7,3
			c0.7,0.4,1.3-0.7,0.6-1.1c-3.5-2.2-7.3-4.2-11.5-2.9c-4.1,1.2-7.4,4.5-10.6,7.2c-7.4,6.4-14.4,13.2-21,20.3
			c-1.9,2-3.7,4.1-5.8,5.8c-2.2,1.8-4.5,3.3-6.9,4.9C126.7,181.7,127.3,182.7,128,182.3C128,182.3,128,182.3,128,182.3z"/>
		
			<linearGradient id="SVGID_00000181765641455528658300000015937140355368364681_" gradientUnits="userSpaceOnUse" x1="128.0261" y1="116.8124" x2="160.0695" y2="116.8124" gradientTransform="matrix(1 0 0 -1 0 264)">
			<stop  offset="0" style="stop-color:#FF0000"/>
			<stop  offset="0.7877" style="stop-color:#006837"/>
		</linearGradient>
		<path style="fill:url(#SVGID_00000181765641455528658300000015937140355368364681_);" d="M159.9,132.4c-3.2,1.3-6.4,2.6-9.4,4.4
			c-3,1.8-5.6,4-8,6.5c-5.2,5.6-9.9,11.8-14.8,17.6c-0.5,0.6,0.4,1.5,0.9,0.9c4.7-5.7,9.2-11.5,14.2-17c2.4-2.6,5-5,8-6.8
			c3-1.8,6.2-3.1,9.4-4.5C160.9,133.3,160.6,132.1,159.9,132.4L159.9,132.4L159.9,132.4z"/>
		
			<linearGradient id="SVGID_00000112630714190429457190000013537422142511308194_" gradientUnits="userSpaceOnUse" x1="119.0379" y1="124.3494" x2="144.1112" y2="124.3494" gradientTransform="matrix(1 0 0 -1 0 264)">
			<stop  offset="0" style="stop-color:#FF0000"/>
			<stop  offset="0.7877" style="stop-color:#006837"/>
		</linearGradient>
		<path style="fill:url(#SVGID_00000112630714190429457190000013537422142511308194_);" d="M119.6,153.5c2.3-2,4.4-4.2,6.2-6.7
			c1.9-2.6,3-5.5,4.4-8.4c1.3-2.8,3.1-5.2,5.5-7.2c1.1-1,2.3-1.8,3.6-2.6c1.2-0.7,3.1-2.3,4.5-1.3c0.6,0.5,1.3-0.6,0.6-1.1
			c-2.3-1.7-5.6,1.1-7.4,2.4c-2.5,1.8-4.8,3.9-6.5,6.5c-1.8,2.9-2.8,6.3-4.6,9.3c-1.9,3.1-4.5,5.7-7.2,8.2
			C118.1,153.1,119,154,119.6,153.5L119.6,153.5L119.6,153.5z"/>
		
			<linearGradient id="SVGID_00000157303970376814819510000002638380781707887019_" gradientUnits="userSpaceOnUse" x1="80.3267" y1="194.5971" x2="102.5693" y2="194.5971" gradientTransform="matrix(1 0 0 -1 0 264)">
			<stop  offset="0" style="stop-color:#FF0000"/>
			<stop  offset="0.7877" style="stop-color:#006837"/>
		</linearGradient>
		<path style="fill:url(#SVGID_00000157303970376814819510000002638380781707887019_);" d="M79.9,3.6c4.5,6.9,9.6,14.7,8.9,23.3
			c-0.2,2.2-0.9,4.3-1.4,6.5c-0.5,2.1-0.8,4.3-0.9,6.5c-0.3,4.4-0.5,9,0,13.4c0.5,4.1,2.2,7.8,3.8,11.5c1.8,4.1,3.1,8.2,4,12.6
			c1.8,9,3,18.2,4.4,27.3c0.8,5.3,1.6,10.6,2.2,15.9c0.3,2.6,0.5,5.2,0.7,7.8c0.1,0.8,1,6.7-1,6.4c-0.8-0.1-1.1,1.1-0.3,1.2
			c3.8,0.6,2.8-5.7,2.6-7.6c-0.4-5-0.9-10-1.6-14.9c-1.3-9.7-3-19.4-4.5-29.1c-0.7-4.6-1.4-9.2-2.8-13.6c-1.3-4.4-3.6-8.3-5.1-12.6
			c-1.6-4.5-1.5-9.2-1.3-14c0.1-2.5,0.1-5,0.5-7.5c0.3-2.3,1-4.5,1.5-6.8c2.3-9.9-3.4-19-8.6-26.9C80.5,2.3,79.4,2.9,79.9,3.6
			L79.9,3.6L79.9,3.6z"/>
		
			<linearGradient id="SVGID_00000009562657842298641540000017025262802701249184_" gradientUnits="userSpaceOnUse" x1="27.7081" y1="113.2825" x2="100.5357" y2="113.2825" gradientTransform="matrix(1 0 0 -1 0 264)">
			<stop  offset="0" style="stop-color:#FF0000"/>
			<stop  offset="0.7877" style="stop-color:#006837"/>
		</linearGradient>
		<path style="fill:url(#SVGID_00000009562657842298641540000017025262802701249184_);" d="M35.5,102.1c0,8.4,0,16.9,0,25.3
			c0,4.2,0.3,8.7-0.6,12.9c-0.8,3.9-2.7,7.4-3.9,11.2c-2.4,7.3-3.6,15-3.8,22.7c-0.1,3.8,0,7.7,0.5,11.5c0.4,3.3,1.3,6.6,3.2,9.4
			c3.2,4.5,9.6,6.7,14.1,3c1.9-1.6,3.2-3.8,4.6-5.9c1.4-2.1,3-4.5,5.6-5.2c3-0.9,6.4,0.6,9.3-0.9c2.7-1.4,3.2-4.6,3.9-7.2
			c1.6-6.3,4-12.8,8.7-17.4c1.1-1.1,2.4-2.1,3.7-3c1.4-0.8,2.9-1.5,4.2-2.4c1.1-0.8,2-1.8,2.5-3c0.8-1.8,1.2-4.4,3.7-4
			c1.3,0.2,2.3,0.2,2.8-1.2c0.6-1.7,0.7-3.6,0.5-5.3c-0.1-0.7-0.3-1.5-0.3-2.2c0-0.3,0-0.8,0.2-1.1c0.4-0.6,1.2-0.2,1.7,0
			c1.2,0.5,2.4,0.4,3.5-0.5c1-0.8,1.5-1.9,1.4-3.1c-0.1-0.8-1.3-0.8-1.2,0c0.1,0.9-0.2,1.7-1,2.3c-0.8,0.6-1.5,0.4-2.4,0.1
			c-1.1-0.4-2.3-0.5-3,0.6c-0.5,0.9-0.4,2.1-0.2,3.1c0.1,1,0.3,1.9,0.2,2.9c0,0.8-0.1,2.5-0.6,3.1c-0.5,0.7-1.8,0-2.5,0
			c-0.6,0-1.1,0.3-1.6,0.6c-1.2,0.9-1.6,2.3-2.1,3.6c-1.2,3.3-4.5,4.1-7.2,6c-4.9,3.3-8,8.5-10.1,14c-1.1,2.9-1.8,6-2.7,9
			c-0.4,1.3-0.9,2.8-2,3.7c-1.5,1.2-3.5,1.1-5.2,1c-2.7-0.1-5.2,0-7.4,1.8c-1.8,1.5-3,3.5-4.3,5.4c-1.4,2.1-2.9,4.4-5.2,5.4
			c-2.9,1.3-6.4,0.2-8.7-1.7c-5.5-4.6-5.4-13.3-5.4-19.8c0-7.6,0.9-15.2,3-22.5c1.2-4,3-7.8,4.2-11.8c1.3-4.2,1.1-8.7,1.1-13
			c0-9.1,0-18.2-0.1-27.3C36.7,101.3,35.5,101.3,35.5,102.1C35.5,102.1,35.5,102.1,35.5,102.1z"/>
		
			<linearGradient id="SVGID_00000036942434855854472450000006547718887198868357_" gradientUnits="userSpaceOnUse" x1="50.8884" y1="204.1842" x2="71.3424" y2="204.1842" gradientTransform="matrix(1 0 0 -1 0 264)">
			<stop  offset="0" style="stop-color:#FF0000"/>
			<stop  offset="0.7877" style="stop-color:#006837"/>
		</linearGradient>
		<path style="fill:url(#SVGID_00000036942434855854472450000006547718887198868357_);" d="M51.6,60.8L51,61.3l1,0.8
			c1.7-2.6,5.6-2.8,8.4-3.1c3.7-0.4,7.3-0.5,11-0.3c0.8,0,0.8-1.2,0-1.2c-4.2-0.2-8.4,0-12.5,0.5c-2.9,0.4-6.2,0.9-7.9,3.5
			c-0.4,0.6,0.5,1.2,1,0.8l0.6-0.5C53.1,61.1,52.2,60.2,51.6,60.8C51.6,60.8,51.6,60.8,51.6,60.8z"/>
		
			<linearGradient id="SVGID_00000147220877267309565780000013601228472644581776_" gradientUnits="userSpaceOnUse" x1="30.7057" y1="199.4157" x2="41.5113" y2="199.4157" gradientTransform="matrix(1 0 0 -1 0 264)">
			<stop  offset="0" style="stop-color:#FF0000"/>
			<stop  offset="0.7877" style="stop-color:#006837"/>
		</linearGradient>
		<path style="fill:url(#SVGID_00000147220877267309565780000013601228472644581776_);" d="M41.9,69.4c0.1-1.6,0.3-3.2-0.4-4.6
			c-0.5-1.3-0.9-2.6-2.1-3.4c-1.1-0.8-2.4-1.1-3.7-1.4c-1.7-0.4-3.4-0.8-5.1-0.6c-0.8,0.1-0.8,1.3,0,1.2c1.5-0.2,3,0.1,4.4,0.5
			c1.2,0.3,2.4,0.6,3.4,1.2c1,0.7,1.3,1.9,1.7,2.9c0.6,1.3,0.4,2.8,0.3,4.2C40.6,70.2,41.8,70.2,41.9,69.4L41.9,69.4L41.9,69.4z"/>
		
			<linearGradient id="SVGID_00000094597768782697158040000010359247889065587104_" gradientUnits="userSpaceOnUse" x1="43.5428" y1="166.8111" x2="61.4029" y2="166.8111" gradientTransform="matrix(1 0 0 -1 0 264)">
			<stop  offset="0" style="stop-color:#FF0000"/>
			<stop  offset="0.7877" style="stop-color:#006837"/>
		</linearGradient>
		<path style="fill:url(#SVGID_00000094597768782697158040000010359247889065587104_);" d="M44.1,97.2c0.4-0.5,1.3-0.5,2-0.5
			c0.8-0.1,1.5-0.1,2.3,0c1.5,0.1,2.9,1,4.4,1.4c2.8,0.9,5.7,1.1,8.6,0.8c0.8-0.1,0.8-1.4,0-1.2c-3.4,0.4-6.7,0-9.8-1.3
			c-1.5-0.6-3-1-4.6-0.9c-1.2,0-2.9,0-3.7,0.9C42.7,96.9,43.6,97.8,44.1,97.2C44.1,97.2,44.1,97.2,44.1,97.2z"/>
		
			<linearGradient id="SVGID_00000052066561112770151440000004700498361900573090_" gradientUnits="userSpaceOnUse" x1="38.7859" y1="161.964" x2="57.0809" y2="161.964" gradientTransform="matrix(1 0 0 -1 0 264)">
			<stop  offset="0" style="stop-color:#FF0000"/>
			<stop  offset="0.7877" style="stop-color:#006837"/>
		</linearGradient>
		<path style="fill:url(#SVGID_00000052066561112770151440000004700498361900573090_);" d="M43.2,95.7c-1,0.2-2.1-0.3-3.1,0.2
			c-1,0.5-1.3,1.7-1.5,2.7c-0.3,1.3-0.4,2.5,0,3.7c0.3,1,0.7,2,1.2,3c1,1.9,2.7,3.3,5,3.1c2.3-0.2,4.4-1.4,6.2-2.8
			c2.4-1.9,4.3-4.2,6.4-6.4c0.5-0.6-0.3-1.5-0.9-0.9c-1.8,2-3.6,4-5.6,5.8c-1.8,1.6-4.6,3.5-7.1,3.1c-2.3-0.4-3.4-3.2-4-5.1
			c-0.4-1.3-0.3-3.2,0.4-4.5c0.5-1.1,2.4-0.4,3.4-0.6C44.3,96.8,44,95.6,43.2,95.7C43.2,95.7,43.2,95.7,43.2,95.7z"/>
		
			<linearGradient id="SVGID_00000112605382749582399740000007234360795682515860_" gradientUnits="userSpaceOnUse" x1="29.3202" y1="229.6285" x2="51.8338" y2="229.6285" gradientTransform="matrix(1 0 0 -1 0 264)">
			<stop  offset="0" style="stop-color:#FF0000"/>
			<stop  offset="0.7877" style="stop-color:#006837"/>
		</linearGradient>
		<path style="fill:url(#SVGID_00000112605382749582399740000007234360795682515860_);" d="M52,20.4c-6.8-1.8-13.5,1.8-17.6,7.3
			c-4.2,5.6-7,13.7-4.8,20.6c0.2,0.8,1.5,0.4,1.2-0.3c-2-6.4,0.4-13.7,4.1-19c3.7-5.3,10.1-9,16.7-7.3C52.4,21.8,52.7,20.6,52,20.4
			L52,20.4L52,20.4z"/>
		
			<linearGradient id="SVGID_00000168108245804750126540000013572048242796199835_" gradientUnits="userSpaceOnUse" x1="65.3599" y1="245.7602" x2="88.3874" y2="245.7602" gradientTransform="matrix(1 0 0 -1 0 264)">
			<stop  offset="0" style="stop-color:#FF0000"/>
			<stop  offset="0.7877" style="stop-color:#006837"/>
		</linearGradient>
		<path style="fill:url(#SVGID_00000168108245804750126540000013572048242796199835_);" d="M65.4,14.7c2.4-0.3,5.3-0.6,7.2,1.3
			c0.8,0.8,1.4,1.8,2.1,2.7c0.7,0.9,1.6,1.7,2.5,2.4c3.4,2.6,8.3,3.1,11.6,0.1c0.6-0.5-0.3-1.4-0.9-0.9c-3.8,3.5-9.2,1.2-12.1-2.2
			c-1.3-1.5-2.2-3.4-4.2-4.3c-1.9-0.8-4.1-0.6-6.2-0.4C64.6,13.5,64.6,14.8,65.4,14.7C65.4,14.7,65.4,14.7,65.4,14.7z"/>
		
			<linearGradient id="SVGID_00000182508023515943970540000010347431444245525376_" gradientUnits="userSpaceOnUse" x1="41.2017" y1="178.1343" x2="51.0367" y2="178.1343" gradientTransform="matrix(1 0 0 -1 0 264)">
			<stop  offset="0" style="stop-color:#FF0000"/>
			<stop  offset="0.7877" style="stop-color:#006837"/>
		</linearGradient>
		<path style="fill:url(#SVGID_00000182508023515943970540000010347431444245525376_);" d="M48.6,87.7c-0.8-1.5-2.4-2.3-4.1-2.5
			c-1.5-0.1-4.1,0.6-3.8,2.5c0.1,0.4,0.5,0.5,0.8,0.4c1.2-0.2,2.5-0.5,3.6,0.3c0.6,0.4,1,0.7,1.7,0.8c0.7,0.1,1.4-0.1,2-0.3
			c1.2-0.5,2.3-1,2.6-2.4c0.3-1.4-0.3-2.6-0.9-3.8c-0.3-0.6-1.1-0.3-1.2,0.3c0,0.1,0,0.3,0,0.4c-0.1,0.8,1.2,0.8,1.2,0
			c0-0.1,0-0.3,0-0.4l-1.2,0.3c0.5,0.9,1.1,2.1,0.6,3.2c-0.2,0.5-0.6,0.7-1.1,0.9C48.5,87.7,48,88,47.4,88c-0.6,0.1-1-0.2-1.5-0.5
			c-0.5-0.3-0.9-0.6-1.5-0.7c-1.1-0.2-2.2,0-3.3,0.2l0.8,0.4c-0.1-0.4,1-0.8,1.3-0.8c0.5-0.1,1.1-0.2,1.6-0.1
			c1.1,0.2,2.1,0.8,2.7,1.8C47.9,89,49,88.4,48.6,87.7L48.6,87.7L48.6,87.7z"/>
		
			<linearGradient id="SVGID_00000049191290423276278120000003824137788635742344_" gradientUnits="userSpaceOnUse" x1="35.6657" y1="180.6077" x2="39.2009" y2="180.6077" gradientTransform="matrix(1 0 0 -1 0 264)">
			<stop  offset="0" style="stop-color:#FF0000"/>
			<stop  offset="0.7877" style="stop-color:#006837"/>
		</linearGradient>
		<path style="fill:url(#SVGID_00000049191290423276278120000003824137788635742344_);" d="M38.6,77.9c-1.4,2.2-3,4.5-3.3,7.2
			c-0.1,1.1-0.1,2.5,0.8,3.4c0.7,0.7,1.8,1,2.8,0.7c0.8-0.2,0.4-1.4-0.3-1.2c-0.7,0.2-1.5,0-1.8-0.7c-0.5-0.9-0.3-2.2,0-3.1
			c0.6-2,1.8-3.9,2.9-5.6C40.1,77.8,39,77.2,38.6,77.9L38.6,77.9z"/>
		
			<linearGradient id="SVGID_00000033371103592693078130000006558838342939783336_" gradientUnits="userSpaceOnUse" x1="89.3019" y1="167.1522" x2="95.8575" y2="167.1522" gradientTransform="matrix(1 0 0 -1 0 264)">
			<stop  offset="0" style="stop-color:#FF0000"/>
			<stop  offset="0.7877" style="stop-color:#006837"/>
		</linearGradient>
		<path style="fill:url(#SVGID_00000033371103592693078130000006558838342939783336_);" d="M95.3,83.6c-3.3,2.8-5.2,6.8-5.7,11.1
			c-0.3,2.2-0.2,4.4,0.3,6.6c0.5,2.7,1.4,5.9-0.9,8c-0.6,0.5,0.3,1.4,0.9,0.9c3.7-3.4,0.8-9,0.9-13.3c0.1-4.7,1.9-9.4,5.5-12.4
			C96.8,83.9,96,83,95.3,83.6C95.3,83.6,95.3,83.6,95.3,83.6z"/>
		
			<linearGradient id="SVGID_00000015320517311748062970000000456204103765901501_" gradientUnits="userSpaceOnUse" x1="78.684" y1="76.3377" x2="101.1984" y2="76.3377" gradientTransform="matrix(1 0 0 -1 0 264)">
			<stop  offset="0" style="stop-color:#FF0000"/>
			<stop  offset="0.7877" style="stop-color:#006837"/>
		</linearGradient>
		<path style="fill:url(#SVGID_00000015320517311748062970000000456204103765901501_);" d="M86.8,153.3c-2.6,4.5-4.9,9.1-6.8,13.9
			c-0.9,2.3-1.7,4.7-1.8,7.2c0,2.4,1,4.4,2.1,6.5c1.2,2.2,2.3,4.5,3.7,6.6c1.3,2.1,3.1,3.7,4.5,5.8c2.7,4,4.4,8.5,6.6,12.8
			c2.6,4.9,5.6,9.9,5.3,15.6c0,0.8,1.2,0.8,1.2,0c0.2-4.5-1.6-8.7-3.6-12.6c-2.2-4.2-4.2-8.5-6.4-12.6c-1.1-2.1-2.3-4.1-3.8-5.9
			c-0.8-1-1.7-1.9-2.4-2.9c-0.7-1-1.3-2-1.8-3.1c-1.2-2.2-2.5-4.3-3.5-6.6c-1.2-2.6-0.7-5.4,0.1-8.1c1.8-5.5,4.7-10.9,7.6-15.9
			C88.3,153.3,87.2,152.6,86.8,153.3L86.8,153.3L86.8,153.3z"/>
		
			<linearGradient id="SVGID_00000123406898164265940600000014170941438387054502_" gradientUnits="userSpaceOnUse" x1="108.849" y1="88.7376" x2="131.6815" y2="88.7376" gradientTransform="matrix(1 0 0 -1 0 264)">
			<stop  offset="0" style="stop-color:#FF0000"/>
			<stop  offset="0.7877" style="stop-color:#006837"/>
		</linearGradient>
		<path style="fill:url(#SVGID_00000123406898164265940600000014170941438387054502_);" d="M132.1,205.6c-1-2.1-2.4-3.9-3.4-6
			c-1-2.2-1.6-4.6-1.9-6.9c-0.6-4.7-0.1-9.4,0.3-14.1c0.7-8.6,0.6-17.7-5.7-24.3c-3.6-3.8-7.9-7.1-12.1-10.1
			c-0.7-0.5-1.3,0.6-0.6,1.1c3.8,2.7,7.5,5.7,10.9,9c3.2,3.1,5.2,6.8,6.1,11.2c1.8,9.2-1.2,18.5,0,27.7c0.3,2.3,0.8,4.5,1.7,6.6
			c1,2.3,2.6,4.3,3.7,6.6C131.4,207,132.5,206.3,132.1,205.6L132.1,205.6L132.1,205.6z"/>
		
			<linearGradient id="SVGID_00000066480393088707176980000012615015705991948419_" gradientUnits="userSpaceOnUse" x1="101.1824" y1="123.5975" x2="109.0107" y2="123.5975" gradientTransform="matrix(1 0 0 -1 0 264)">
			<stop  offset="0" style="stop-color:#FF0000"/>
			<stop  offset="0.7877" style="stop-color:#006837"/>
		</linearGradient>
		<path style="fill:url(#SVGID_00000066480393088707176980000012615015705991948419_);" d="M109.4,144.1c-0.5-0.8-1.1-1.5-1.7-2.2
			c-0.6-0.7-1.3-1.5-1.9-2.2c-1.3-1.4-2.7-2.7-4.2-3.7c-0.7-0.4-1.3,0.6-0.6,1.1c1.5,1,2.8,2.2,4,3.5c0.6,0.7,1.2,1.4,1.8,2
			c0.6,0.7,1.2,1.4,1.7,2.2C108.8,145.4,109.9,144.8,109.4,144.1L109.4,144.1z"/>
		
			<linearGradient id="SVGID_00000132794072909616755010000013380628701868752512_" gradientUnits="userSpaceOnUse" x1="143.9244" y1="88.7493" x2="189.4559" y2="88.7493" gradientTransform="matrix(1 0 0 -1 0 264)">
			<stop  offset="0" style="stop-color:#FF0000"/>
			<stop  offset="0.7877" style="stop-color:#006837"/>
		</linearGradient>
		<path style="fill:url(#SVGID_00000132794072909616755010000013380628701868752512_);" d="M144.6,197c2.6-3.5,6.6-5.3,10.2-7.5
			c3.3-2,6.2-4.6,8.7-7.6c5.2-6.1,8.8-13.4,13.9-19.5c3.1-3.7,7-7.8,12.2-8c0.8,0,0.8-1.3,0-1.2c-4.4,0.2-8,2.9-10.9,6
			c-2.9,3-5.3,6.4-7.6,9.9c-4.6,6.9-9,14.4-16.2,19c-4,2.5-8.4,4.4-11.3,8.3C143,197,144.1,197.7,144.6,197L144.6,197L144.6,197z"/>
		
			<linearGradient id="SVGID_00000168836977850373518620000008109852237106360739_" gradientUnits="userSpaceOnUse" x1="108.9033" y1="178.1322" x2="125.3274" y2="178.1322" gradientTransform="matrix(1 0 0 -1 0 264)">
			<stop  offset="0" style="stop-color:#FF0000"/>
			<stop  offset="0.7877" style="stop-color:#006837"/>
		</linearGradient>
		<path style="fill:url(#SVGID_00000168836977850373518620000008109852237106360739_);" d="M121.4,30.2c1.9,15.2,3,30.6,3.2,45.9
			c0.1,7.5,0,14.9-1.3,22.3c-1.3,7.1-3.3,14.1-5.6,20.9c-1.3,3.8-2.6,7.6-4,11.4c-1.4,3.7-3,7.3-5.2,10.5c-0.5,0.7,0.6,1.3,1.1,0.6
			c4-5.7,6-12.6,8.3-19.1c2.4-7,4.6-14,6.1-21.3c1.5-7.3,2-14.5,1.9-21.9c0-7.8-0.3-15.5-0.8-23.2c-0.5-8.7-1.4-17.4-2.4-26.1
			C122.5,29.4,121.3,29.4,121.4,30.2C121.4,30.2,121.4,30.2,121.4,30.2z"/>
		
			<linearGradient id="SVGID_00000028303985940301236500000005125054763762110129_" gradientUnits="userSpaceOnUse" x1="64.1672" y1="109.8924" x2="66.3765" y2="109.8924" gradientTransform="matrix(1 0 0 -1 0 264)">
			<stop  offset="0" style="stop-color:#FF0000"/>
			<stop  offset="0.7877" style="stop-color:#006837"/>
		</linearGradient>
		<path style="fill:url(#SVGID_00000028303985940301236500000005125054763762110129_);" d="M65.4,124.9c0.4,9.9,0.3,19.8-0.4,29.7
			c-0.6,9.6-2.2,19.3-0.7,28.9c0.1,0.8,1.3,0.5,1.2-0.3c-1.5-9.6,0.2-19.4,0.8-29.1c0.6-9.7,0.7-19.5,0.3-29.2
			C66.6,124.1,65.3,124,65.4,124.9C65.4,124.9,65.4,124.9,65.4,124.9z"/>
		
			<linearGradient id="SVGID_00000126324721035631349850000017893315683691785117_" gradientUnits="userSpaceOnUse" x1="43.4548" y1="96.6844" x2="65.2388" y2="96.6844" gradientTransform="matrix(1 0 0 -1 0 264)">
			<stop  offset="0" style="stop-color:#FF0000"/>
			<stop  offset="0.7877" style="stop-color:#006837"/>
		</linearGradient>
		<path style="fill:url(#SVGID_00000126324721035631349850000017893315683691785117_);" d="M64.7,137.7c-2.6,3.1-5.1,6.3-7,9.9
			c-2,3.8-2.7,8-3.7,12.2c-1.9,8.5-7.5,15.4-10,23.6c-1.3,4.4-1.6,9.1,0.1,13.4c0.3,0.7,1.5,0.4,1.2-0.3c-3.3-8.1,1-16.4,4.7-23.4
			c1.8-3.5,3.6-7.1,4.7-10.9c1.1-4.1,1.5-8.4,3.3-12.3c1.8-4.1,4.7-7.7,7.5-11.2C66.1,137.9,65.2,137,64.7,137.7L64.7,137.7z"/>
		
			<linearGradient id="SVGID_00000181065981906375570010000002188120227535364495_" gradientUnits="userSpaceOnUse" x1="64.8892" y1="126.4157" x2="66.0967" y2="126.4157" gradientTransform="matrix(1 0 0 -1 0 264)">
			<stop  offset="0" style="stop-color:#FF0000"/>
			<stop  offset="0.7877" style="stop-color:#006837"/>
		</linearGradient>
		<path style="fill:url(#SVGID_00000181065981906375570010000002188120227535364495_);" d="M65.5,138.2c0.8,0,0.8-1.2,0-1.2
			C64.7,137,64.7,138.2,65.5,138.2L65.5,138.2z"/>
		
			<linearGradient id="SVGID_00000010273411019342511720000009830210523299296168_" gradientUnits="userSpaceOnUse" x1="30.4436" y1="105.9622" x2="63.1477" y2="105.9622" gradientTransform="matrix(1 0 0 -1 0 264)">
			<stop  offset="0" style="stop-color:#FF0000"/>
			<stop  offset="0.7877" style="stop-color:#006837"/>
		</linearGradient>
		<path style="fill:url(#SVGID_00000010273411019342511720000009830210523299296168_);" d="M62.8,125.2c-3.5,2.7-7,5.5-9.9,8.9
			c-3,3.5-4.9,7.5-6.2,11.9c-1.4,4.9-2.3,10-3.1,15c-0.4,2.5-0.7,5-1.4,7.4c-0.7,2.5-1.8,4.7-3.2,6.8c-3.2,4.9-6.3,9.7-8.9,14.9
			c-0.4,0.7,0.7,1.4,1.1,0.6c2.3-4.5,4.8-8.8,7.6-13c1.4-2,2.8-4,3.7-6.3c0.9-2.1,1.4-4.3,1.8-6.5c0.9-4.9,1.6-9.8,2.7-14.7
			c1-4.7,2.4-9.3,5.3-13.3c3-4.2,7.1-7.6,11.2-10.7C64,125.8,63.4,124.7,62.8,125.2C62.8,125.2,62.8,125.2,62.8,125.2z"/>
		
			<linearGradient id="SVGID_00000120550545592399291130000006412531807472754048_" gradientUnits="userSpaceOnUse" x1="0.493" y1="77.8817" x2="92.9166" y2="77.8817" gradientTransform="matrix(1 0 0 -1 0 264)">
			<stop  offset="0" style="stop-color:#FF0000"/>
			<stop  offset="0.7877" style="stop-color:#006837"/>
		</linearGradient>
		<path style="fill:url(#SVGID_00000120550545592399291130000006412531807472754048_);" d="M33.4,144.4c-6.4,2.8-12.8,5.7-19,9
			c-2.6,1.4-5,3-6.9,5.3c-1.6,2-2.8,4.4-3.6,6.9c-1.9,5.8-2.4,12.1-3.3,18.1c-0.5,3.3-1,6.7-0.6,10c0.4,3.1,1.8,6,3.1,8.8
			c2.6,5.5,5.8,10.9,10.2,15.1c3.7,3.5,8.2,6.2,13,8c5,1.8,10.4,2.6,15.6,2.2c5.8-0.4,11.3-2.3,16.3-5.1c6-3.3,11.1-7.8,16.7-11.7
			c5.3-3.8,11.2-7.1,17.8-7.4c0.8,0,0.8-1.3,0-1.2c-11.2,0.7-19.8,8.8-28.5,15.1c-4.9,3.5-10.3,6.7-16.2,8.2
			c-5,1.3-10.3,1.4-15.4,0.4c-5.1-1-10-3-14.3-5.9c-4.8-3.3-8.5-7.7-11.3-12.7c-3.1-5.4-6.3-11.4-5.9-17.8c0.2-3.4,0.9-6.9,1.4-10.3
			c0.4-2.9,0.8-5.9,1.4-8.8c0.6-3,1.4-6,2.9-8.7c1.6-2.9,4.1-5,7-6.7c6.4-3.6,13.3-6.7,20.1-9.6C34.8,145.2,34.2,144.1,33.4,144.4
			L33.4,144.4L33.4,144.4z"/>
		
			<linearGradient id="SVGID_00000083771257959995651480000003700445633231701132_" gradientUnits="userSpaceOnUse" x1="10.3482" y1="81.0038" x2="52.3056" y2="81.0038" gradientTransform="matrix(1 0 0 -1 0 264)">
			<stop  offset="0" style="stop-color:#FF0000"/>
			<stop  offset="0.7877" style="stop-color:#006837"/>
		</linearGradient>
		<path style="fill:url(#SVGID_00000083771257959995651480000003700445633231701132_);" d="M22.6,150.4c-4.7,4.5-9.5,9.4-11.4,15.8
			c-1,3.4-1.2,6.9-1.3,10.4c-0.1,3.7,0,7.3,0.7,10.9c0.7,3.7,2.4,7,4.3,10.2c1.9,3.3,4,6.4,6.2,9.5c1.7,2.4,3.5,4.9,6.1,6.5
			c2.7,1.7,5.9,2,9,2c6.2,0.1,12.9-1.5,16.6-6.8c0.5-0.7-0.6-1.3-1.1-0.6c-3.2,4.6-9.1,6.1-14.5,6.2c-3,0-6.3-0.1-9-1.6
			c-2.6-1.4-4.5-3.9-6.2-6.3c-2-2.9-3.9-5.8-5.7-8.8c-1.7-2.8-3.4-5.8-4.2-9c-0.9-3.4-1-6.9-1-10.4c0-3.4,0.1-6.8,0.8-10.2
			c1.5-7,6.6-12.1,11.6-17C24,150.7,23.1,149.9,22.6,150.4L22.6,150.4L22.6,150.4z"/>
		
			<linearGradient id="SVGID_00000033366824705744682530000014430595345995764662_" gradientUnits="userSpaceOnUse" x1="54.2261" y1="233.211" x2="67.3955" y2="233.211" gradientTransform="matrix(1 0 0 -1 0 264)">
			<stop  offset="0" style="stop-color:#FF0000"/>
			<stop  offset="0.7877" style="stop-color:#006837"/>
		</linearGradient>
		<path style="fill:url(#SVGID_00000033366824705744682530000014430595345995764662_);" d="M54,23.7c2.9,1.8,5.3,4.5,6.7,7.7
			c0.7,1.6,1,3.3,2.2,4.7c1.1,1.3,2.6,2.2,4.1,2.9c0.7,0.4,1.3-0.7,0.6-1.1c-1.5-0.8-3.2-1.6-4.1-3.1c-0.5-0.8-0.8-1.7-1.1-2.6
			c-0.3-0.8-0.6-1.6-1-2.3c-1.6-3-3.9-5.5-6.8-7.3C53.9,22.2,53.3,23.3,54,23.7L54,23.7L54,23.7z"/>
		
			<linearGradient id="SVGID_00000056410916123491153020000013578987993224626352_" gradientUnits="userSpaceOnUse" x1="53.3849" y1="251.9885" x2="75.8105" y2="251.9885" gradientTransform="matrix(1 0 0 -1 0 264)">
			<stop  offset="0" style="stop-color:#FF0000"/>
			<stop  offset="0.7877" style="stop-color:#006837"/>
		</linearGradient>
		<path style="fill:url(#SVGID_00000056410916123491153020000013578987993224626352_);" d="M54.1,22.1c0-1.3,1.4-2.2,2.2-3
			c1-0.9,2-1.8,3-2.8c1.9-1.8,3.8-3.5,5.5-5.5c1.5-1.8,2.7-3.9,4.6-5.4c1.9-1.5,4.2-2.5,6.6-2.8c0.8-0.1,0.5-1.3-0.3-1.2
			c-2.4,0.3-4.7,1.3-6.7,2.7c-2.2,1.7-3.5,4-5.3,6.1c-1.9,2.1-4,4-6.1,6c-1.1,1.1-2.3,2.1-3.4,3.1c-0.8,0.8-1.3,1.6-1.3,2.7
			C52.9,22.9,54.1,22.9,54.1,22.1L54.1,22.1L54.1,22.1z"/>
		
			<linearGradient id="SVGID_00000088817540950282518780000012514717778964597123_" gradientUnits="userSpaceOnUse" x1="39.381" y1="248.2598" x2="58.8987" y2="248.2598" gradientTransform="matrix(1 0 0 -1 0 264)">
			<stop  offset="0" style="stop-color:#FF0000"/>
			<stop  offset="0.7877" style="stop-color:#006837"/>
		</linearGradient>
		<path style="fill:url(#SVGID_00000088817540950282518780000012514717778964597123_);" d="M59.1,14.9c-2.8-1.6-6.1-2.3-9.3-1.7
			c-1.8,0.3-3.3,1.1-5,1.8c-1.9,0.8-3.7,1.5-5.7,2.2c-0.8,0.3-0.4,1.5,0.3,1.2c1.7-0.6,3.3-1.2,4.9-1.9c1.6-0.7,3.1-1.5,4.8-1.9
			c3.1-0.8,6.5-0.3,9.2,1.3C59.2,16.4,59.8,15.3,59.1,14.9C59.1,14.9,59.1,14.9,59.1,14.9z"/>
		
			<linearGradient id="SVGID_00000094597962902496167430000009907880118357414288_" gradientUnits="userSpaceOnUse" x1="29.0406" y1="189.6973" x2="98.2554" y2="189.6973" gradientTransform="matrix(1 0 0 -1 0 264)">
			<stop  offset="0" style="stop-color:#FF0000"/>
			<stop  offset="0.7877" style="stop-color:#006837"/>
		</linearGradient>
		<path style="fill:url(#SVGID_00000094597962902496167430000009907880118357414288_);" d="M52.8,21.9c-2.6,0.5-4.6,2.1-6.5,3.8
			c-2.4,2.2-4.7,4.5-7,6.8c-1.9,1.9-3.9,3.7-5.5,5.9c-1.7,2.3-2.7,4.9-3.2,7.7c-0.6,3.1-0.8,6.2-1.1,9.3c-0.3,3.2-0.9,6.4-0.9,9.6
			c0,1.2,0.1,2.4,0.4,3.6c0.4,1.4,1.2,2.5,1.9,3.7c1.6,2.7,1.7,5.5,1.4,8.6c-0.3,2.8-0.6,5.5-0.1,8.3c0.4,2.9,1.4,5.7,2.4,8.4
			c1.1,2.8,2.3,5.5,3.3,8.3c1,2.9,1.8,5.9,2.4,8.9c0.5,2.5,0.8,5.3,1.9,7.7c1.1,2.4,3.2,3.5,5.8,3.9c5.7,1,11.6,0.4,17.1-1.2
			c13.1-3.7,23.6-12.7,33.7-21.4c0.6-0.5-0.3-1.4-0.9-0.9C89,110.3,80,118,69.2,122.3c-5.2,2.1-10.8,3.3-16.4,3.2
			c-2.6-0.1-6.3,0-8.3-1.9c-1.9-1.7-2.2-4.7-2.6-7c-0.6-2.9-1.1-5.8-2-8.6c-0.8-2.7-1.9-5.2-2.9-7.8c-2.1-5-4.1-10.2-3.8-15.8
			c0.2-2.7,0.7-5.4,0.4-8.1c-0.3-2.5-1.5-4.3-2.7-6.4c-1.5-2.6-1.1-5.6-0.8-8.5c0.3-3.1,0.6-6.2,1-9.3c0.4-3.4,0.6-6.9,2-10.1
			c1.2-2.7,3.2-5,5.3-7c2.4-2.4,4.9-4.7,7.3-7.1c2.2-2.1,4.4-4.4,7.5-4.9C53.9,22.9,53.5,21.7,52.8,21.9L52.8,21.9L52.8,21.9z"/>
		
			<linearGradient id="SVGID_00000031176796200219721850000002843339903280064904_" gradientUnits="userSpaceOnUse" x1="54.1506" y1="260.2879" x2="99.3853" y2="260.2879" gradientTransform="matrix(1 0 0 -1 0 264)">
			<stop  offset="0" style="stop-color:#FF0000"/>
			<stop  offset="0.7877" style="stop-color:#006837"/>
		</linearGradient>
		<path style="fill:url(#SVGID_00000031176796200219721850000002843339903280064904_);" d="M54.5,7.4c3.5-1.7,6.9-3.6,10.5-5
			c3.8-1.5,7.8-1.2,11.7-0.5c7.6,1.4,15.1,3.4,22.4,5.5c0.8,0.2,1.1-1,0.3-1.2c-7.8-2.3-15.8-4.5-23.8-5.8c-3.7-0.6-7.4-0.6-11,0.7
			C61,2.5,57.5,4.5,53.9,6.3C53.2,6.6,53.8,7.7,54.5,7.4L54.5,7.4L54.5,7.4z"/>
	</g>
</g>
</svg>
